# xmcd CD database file
# Copyright (C) 1995-1998 Ti Kan
#
# Track frame offsets:
#	150
#	18822
#	36298
#	52567
#	71360
#	90817
#	106418
#	123512
#	142547
#	159350
#	178185
#	190245
#	209783
#
# Disc length: 2854 seconds
#
# Revision: 2
# Processed by: cddbd v1.4b41PL2 Copyright (c) Steve Scherf et al.
# Submitted via: CDex 1.40Beta3
#
DISCID=9e0b240d
DTITLE=Nisse Hellberg - XTREM
DYEAR=2001
DGENRE=Blues
TTITLE0=Punk Blues
TTITLE1=Ännu en doft från den fina världen
TTITLE2=Helt ny stil
TTITLE3=Det goda livet blir min grav
TTITLE4=Ödlan inom dej
TTITLE5=Värdet av en utsträckt hand
TTITLE6=Extrem aptit
TTITLE7=Dödens dal
TTITLE8=Min lycka har vänt
TTITLE9=Bulldozer
TTITLE10=En Top Hat, tack!
TTITLE11=Upp ur bunkern
TTITLE12=Reklamspår
EXTD=YEAR: 2001 ID3G:   0
EXTT0=
EXTT1=
EXTT2=
EXTT3=
EXTT4=
EXTT5=
EXTT6=
EXTT7=
EXTT8=
EXTT9=
EXTT10=
EXTT11=
EXTT12=
PLAYORDER=
